<svg id="Layer_1" data-name="Layer 1" xmlns="http://www.w3.org/2000/svg" xmlns:xlink="http://www.w3.org/1999/xlink" viewBox="0 0 48 48"><defs><style>.cls-1{fill:none;}.cls-2{fill:#4d4d4d;}.cls-3{fill:url(#linear-gradient);}.cls-4{fill:url(#linear-gradient-2);}.cls-5{fill:url(#linear-gradient-3);}.cls-6{opacity:0.5;}.cls-7{fill:#fff;}.cls-8{opacity:0.25;}.cls-9{clip-path:url(#clip-path);}</style><linearGradient id="linear-gradient" x1="8.88" y1="39.12" x2="39.12" y2="8.88" gradientUnits="userSpaceOnUse"><stop offset="0" stop-color="#666"/><stop offset="1" stop-color="#333"/></linearGradient><linearGradient id="linear-gradient-2" x1="11.29" y1="36.71" x2="36.71" y2="11.29" gradientUnits="userSpaceOnUse"><stop offset="0" stop-color="#53c1e0"/><stop offset="1" stop-color="#e4e4e4"/></linearGradient><linearGradient id="linear-gradient-3" x1="14" y1="24" x2="34" y2="24" gradientUnits="userSpaceOnUse"><stop offset="0" stop-color="#fff"/><stop offset="1" stop-color="#00dcff"/></linearGradient><clipPath id="clip-path"><polygon class="cls-1" points="15.82 40 14 40 14 8 34 8 15.82 40"/></clipPath></defs><title>icons_48hf_phone_classic</title><path class="cls-2" d="M13,10.38a.37.37,0,0,1-.37-.38V9A.36.36,0,0,1,13,8.63a.37.37,0,0,1,.38.37v1A.38.38,0,0,1,13,10.38Z"/><path class="cls-2" d="M13,15.38a.37.37,0,0,1-.37-.38V12a.36.36,0,0,1,.37-.37.37.37,0,0,1,.38.37v3A.38.38,0,0,1,13,15.38Z"/><path class="cls-2" d="M31.5,3.38h-3A.37.37,0,0,1,28.13,3a.36.36,0,0,1,.37-.37h3a.37.37,0,0,1,.38.37A.38.38,0,0,1,31.5,3.38Z"/><path class="cls-2" d="M13,20.38a.37.37,0,0,1-.37-.38V17a.36.36,0,0,1,.37-.37.37.37,0,0,1,.38.37v3A.38.38,0,0,1,13,20.38Z"/><path class="cls-3" d="M32,3H16a3,3,0,0,0-3,3V42a3,3,0,0,0,3,3H32a3,3,0,0,0,3-3V6a3,3,0,0,0-3-3Z"/><rect class="cls-4" x="14" y="8" width="20" height="32" rx="1"/><path class="cls-5" d="M33,8.25a.76.76,0,0,1,.75.75V39a.76.76,0,0,1-.75.75H15a.76.76,0,0,1-.75-.75V9A.76.76,0,0,1,15,8.25H33M33,8H15a1,1,0,0,0-1,1V39a1,1,0,0,0,1,1H33a1,1,0,0,0,1-1V9a1,1,0,0,0-1-1Z"/><g class="cls-6"><circle class="cls-7" cx="24" cy="42.5" r="1.5"/></g><g class="cls-8"><g class="cls-9"><path class="cls-7" d="M34,38.48A1.7,1.7,0,0,1,32.18,40H15.82A1.7,1.7,0,0,1,14,38.48v-29A1.7,1.7,0,0,1,15.82,8H32.18A1.7,1.7,0,0,1,34,9.52Z"/></g></g><g class="cls-6"><path class="cls-7" d="M25.5,5.88h-5a.37.37,0,0,1-.37-.38.36.36,0,0,1,.37-.37h5a.37.37,0,0,1,.38.37A.38.38,0,0,1,25.5,5.88Z"/></g><g class="cls-6"><path class="cls-7" d="M27.5,5a.41.41,0,0,0-.19,0,.53.53,0,0,0-.27.27.43.43,0,0,0,0,.19.47.47,0,0,0,.15.35.36.36,0,0,0,.16.11.47.47,0,0,0,.38,0A.53.53,0,0,0,28,5.69a.41.41,0,0,0,0-.19.43.43,0,0,0,0-.19A.53.53,0,0,0,27.69,5a.43.43,0,0,0-.19,0Z"/></g></svg>