<svg id="Layer_1" data-name="Layer 1" xmlns="http://www.w3.org/2000/svg" xmlns:xlink="http://www.w3.org/1999/xlink" viewBox="0 0 48 48"><defs><style>.cls-1{fill:none;}.cls-2{fill:#4d4d4d;}.cls-3{fill:url(#linear-gradient);}.cls-4{fill:url(#linear-gradient-2);}.cls-5{fill:url(#linear-gradient-3);}.cls-6{opacity:0.25;}.cls-7{clip-path:url(#clip-path);}.cls-8{fill:#fff;}.cls-9{fill:#333;}.cls-10{opacity:0.5;}</style><linearGradient id="linear-gradient" x1="7.88" y1="40.12" x2="40.12" y2="7.88" gradientUnits="userSpaceOnUse"><stop offset="0" stop-color="#666"/><stop offset="1" stop-color="#333"/></linearGradient><linearGradient id="linear-gradient-2" x1="8.59" y1="39.41" x2="39.41" y2="8.59" gradientUnits="userSpaceOnUse"><stop offset="0" stop-color="#00a0ff"/><stop offset="1" stop-color="#00dcff"/></linearGradient><linearGradient id="linear-gradient-3" x1="13" y1="24" x2="35" y2="24" gradientUnits="userSpaceOnUse"><stop offset="0" stop-color="#fff"/><stop offset="1" stop-color="aqua"/></linearGradient><clipPath id="clip-path"><polygon class="cls-1" points="15 45 13 45 13 3 35 3 15 45"/></clipPath></defs><title>icons_48hf_phone_ag</title><path class="cls-2" d="M12,9.38A.37.37,0,0,1,11.63,9V8A.36.36,0,0,1,12,7.63a.37.37,0,0,1,.38.37V9A.38.38,0,0,1,12,9.38Z"/><path class="cls-2" d="M12,14.38a.37.37,0,0,1-.37-.38V11a.36.36,0,0,1,.37-.37.37.37,0,0,1,.38.37v3A.38.38,0,0,1,12,14.38Z"/><path class="cls-2" d="M36,18.38a.37.37,0,0,1-.37-.38V12a.36.36,0,0,1,.37-.37.37.37,0,0,1,.38.37v6A.38.38,0,0,1,36,18.38Z"/><path class="cls-2" d="M12,19.38a.37.37,0,0,1-.37-.38V16a.36.36,0,0,1,.37-.37.37.37,0,0,1,.38.37v3A.38.38,0,0,1,12,19.38Z"/><rect class="cls-3" x="12" y="2" width="24" height="44" rx="3"/><rect class="cls-4" x="13" y="3" width="22" height="42" rx="2"/><path class="cls-5" d="M33,3.25A1.76,1.76,0,0,1,34.75,5V43A1.76,1.76,0,0,1,33,44.75H15A1.76,1.76,0,0,1,13.25,43V5A1.76,1.76,0,0,1,15,3.25H33M33,3H15a2,2,0,0,0-2,2V43a2,2,0,0,0,2,2H33a2,2,0,0,0,2-2V5a2,2,0,0,0-2-2Z"/><path d="M26.5,43.75h-5a.25.25,0,0,1,0-.5h5a.25.25,0,0,1,0,.5Z"/><g class="cls-6"><g class="cls-7"><rect class="cls-8" x="13" y="3" width="22" height="42" rx="2"/></g></g><path class="cls-9" d="M18,2V3a2,2,0,0,0,2,2h8a2,2,0,0,0,2-2V2Z"/><g class="cls-10"><path class="cls-8" d="M25.5,3.88h-5a.37.37,0,0,1-.37-.38.36.36,0,0,1,.37-.37h5a.37.37,0,0,1,.38.37A.38.38,0,0,1,25.5,3.88Z"/></g><g class="cls-10"><path class="cls-8" d="M27.5,3a.41.41,0,0,0-.19,0,.36.36,0,0,0-.16.11.36.36,0,0,0-.11.16.43.43,0,0,0,0,.19.47.47,0,0,0,.15.35.36.36,0,0,0,.16.11.47.47,0,0,0,.38,0,.36.36,0,0,0,.16-.11A.36.36,0,0,0,28,3.69a.41.41,0,0,0,0-.19.43.43,0,0,0,0-.19.36.36,0,0,0-.11-.16A.36.36,0,0,0,27.69,3a.43.43,0,0,0-.19,0Z"/></g></svg>